# xmcd CD database file
#
# Track frame offsets:
#	225
#	18902
#	42479
#	58008
#	77935
#	98255
#	116781
#	135109
#	155473
#	173138
#
# Disc length: 2565 seconds
#
# Revision: 0
# Processed by: cddbd v1.5PL3 Copyright (c) Steve Scherf et al.
# Submitted via: CDex 1.51
#
DISCID=740a020a
DTITLE=FUNNY MONEY - Funny Money
DYEAR=1997
DGENRE=Hard Rock
TTITLE0=Off My Rocker
TTITLE1=Art Of Persuasion
TTITLE2=Can't Take The Heat
TTITLE3=Baby Blues
TTITLE4=For Keeps
TTITLE5=Boogie Man
TTITLE6=Pick Me Up
TTITLE7=Suckin' My Blood
TTITLE8=Monkey See, Monkey Do
TTITLE9=Dry Eyes Cry
EXTD=YEAR: 1997
EXTT0=
EXTT1=
EXTT2=
EXTT3=
EXTT4=
EXTT5=
EXTT6=
EXTT7=
EXTT8=
EXTT9=
PLAYORDER=
